<svg width="1914" height="972" viewBox="0 0 1914 972" fill="none" xmlns="http://www.w3.org/2000/svg">
    <path
        d="M351.519 955.649C232.283 981.64 63.1652 966.479 -6.48942 955.649L-8 -1H1919V256.406C1905.4 258.405 1876.08 259.872 1867.64 260.404C1835.92 262.403 1800.37 262.403 1784.56 262.403C1745.79 262.403 1656.66 256.406 1600.27 251.407C1581.39 249.734 1503.59 247.409 1478.92 245.41C1460.57 243.923 1395.5 244.077 1367.13 245.41C1302.28 245.41 1251.83 262.403 1221.61 271.4C1191.4 280.397 1150.11 300.39 1131.99 312.885C1102.78 328.379 1050.41 373.363 1025.24 398.354C1000.06 423.344 957.934 485.488 933.093 521.308L812.75 684.749C742.619 770.05 710.273 797.65 685.303 818.957L683.847 820.199C663.831 837.286 542.859 906.667 509.626 916.664C476.394 926.66 500.563 923.161 351.519 955.649Z"
        fill="#FF6752" />
    <path
        d="M362.5 820.5C239.3 877.3 69.8333 857.833 0.5 841V955.5C24.3333 958.167 86.4 964.7 144 969.5C216 975.5 285.5 964.5 329 961C372.5 957.5 440.5 937.5 479.5 927.5C519 922.5 581 881 594 878C607 875 681.5 825 689.5 818C699 815 753 755.5 759 751C765 746.5 824.5 673 828 667.5C829.5 662 887 587.5 893 579C899 570.5 923 539 930 528C934.5 517.5 959.5 484 973.5 466.5C981 450 1025 401 1043.5 382C1062 363 1108.5 327.5 1123.5 318.5C1129 313.5 1167.33 293 1186.5 284.5C1205.3 272.9 1240.5 265.5 1257.5 260C1280.5 252.559 1332.67 246.5 1356 245H1462.5L1601 252.5C1636 254.667 1715.9 259.7 1755.5 262.5C1795.1 265.3 1876 259.333 1911.5 256C1855.33 238.833 1731.8 200.4 1687 184C1642.2 167.6 1476.67 145.833 1399.5 137C1307.5 128.5 1250.5 149 1221.5 153C1198.43 156.182 1115.33 187.333 1078 202C1030 219.5 966 270 935.5 301.5C910.072 327.762 844.5 413.5 827.5 444C810.5 474.5 761 532 747.5 552C734 572 688.5 618 633 665C577.5 712 516.5 749.5 362.5 820.5Z"
        fill="white" fill-opacity="0.08" />
    <path
        d="M122.5 764.47C59.7 811.27 15.3333 803.637 1 793.97C1.16667 846.97 1.5 953.47 1.5 955.47C1.5 957.47 58.5 962.97 87 965.47C135.5 970.47 141.5 967.97 178.5 969.47C214.143 970.915 281.5 966.47 311 963.97C340.5 961.47 422.5 942.47 446.5 936.97C470.5 934.47 533.5 909.97 559.5 896.97C585.5 883.97 606.5 872.47 665.5 836.47C724.5 793.97 737.5 773.47 760 749.47C782.5 730.47 835 656.97 844 644.47C855 634.47 885 585.97 899.5 567.47C914 548.97 974 465.47 992 440.97C1001.5 417.97 1070.5 356.97 1087.5 342.97C1101.5 329.47 1146.5 304.47 1175.5 289.97C1193.9 279.17 1236.83 266.803 1256 261.97C1358 235.97 1376 241.97 1388.5 241.97C1411.55 241.97 1478.5 246.47 1523 248.47L1639 253.47C1676 255.97 1699.5 257.97 1762.5 259.97C1813.58 261.591 1884.67 258.637 1914.5 255.97C1830.5 262.37 1720.31 242.561 1669 224.97C1651.5 218.97 1469.5 184.97 1412.5 171.97C1341.25 155.72 1231.82 141.129 1157 128.97C1077 115.97 966 120.106 903 122.97C823.8 126.57 750 166.933 715.5 182.47C640 216.47 577 263.47 535 311.97C489.5 367.97 358 531.47 338.5 562.97C319 594.47 201 705.97 122.5 764.47Z"
        fill="white" fill-opacity="0.05" />
</svg>