<svg width="1939" height="1419" viewBox="0 0 1939 1419" fill="none" xmlns="http://www.w3.org/2000/svg">
<g clip-path="url(#clip0_807_119)">
<path d="M235.842 574C176.861 595.2 34.7562 668.833 -28.9238 703V1312C-16.5466 1309.17 29.9488 1292.1 116.912 1246.5C251.448 1166.5 235.842 1145.5 348.313 1051.5C438.29 976.3 483.028 946.167 494.149 940.5C549.578 904.833 674.123 842.476 718.016 829C779.902 810 843.403 790 946.188 781.5C994.262 776.667 1106.55 768.5 1172.21 773C1197.86 773.167 1263.37 774.145 1324.5 781.5C1399.3 790.5 1389.08 786.5 1571.51 821.5C1751.25 855.984 1779.67 860.272 1845.42 881.5C1908.92 902 1994.49 931.833 2035.39 943.5V1.53222C1926.96 3.6993 1915.6 4.56884 1807.21 18.5C1671.06 36 1624.25 108.5 1601.11 135.5C1582.59 157.1 1547.47 204.5 1532.22 225.5C1518.77 248 1453.66 370 1409.53 422.5C1384.77 455 1355.71 472.5 1324.5 491C1276.61 523 1164.49 554.5 1114.63 565.5C1105.48 567.5 1058.66 570 1027.99 571.5C1004.09 572.668 939.551 572.833 910.132 571.5C847.17 569.5 859.009 569 735.775 555C609.304 540.632 630.299 523 474.238 531.5C318.177 540 309.567 547.5 235.842 574Z" fill="#3874E7"/>
<path d="M233.689 598.5C108.84 626.9 6.59349 704 -28.9238 739V670C125.523 564 195.481 559.5 228.846 554C359.692 532.431 540.43 513 735.775 545.5C931.12 578 950.493 564 1095.79 556.5C1362.17 535.5 1389.08 430.5 1431.05 384C1464.96 340.5 1526.3 227 1551.06 192L1552.33 190.204C1576.42 156.132 1594.14 131.063 1657.61 77.5C1717.88 29.5 1930.99 -2 2035.39 -0.499999V69.5C2027.31 68.5 2000.62 67.1 1958.43 69.5C1905.69 72.5 1861.57 87.5 1849.73 87.5C1801.83 102 1794.3 106.5 1766.85 115.5C1746.47 122.183 1669.99 164.5 1643.62 205.5C1617.25 246.5 1603.8 317 1593.03 350.5C1582.27 384 1563.44 447 1541.91 488.5C1512.31 532.5 1488.1 552.5 1431.05 595.5C1353.5 637.945 1343.34 632.5 1266.92 640C1188.1 644.642 1078.03 640 988.701 635.5C899.37 631 891.212 632.638 726.626 604.5C659.359 593 629.453 590.778 493.073 576.5C416.657 568.5 283.198 587.238 233.689 598.5Z" fill="#4487FF"/>
<path d="M235.304 812.492C169.005 846.528 30.8099 942.796 -30 986.676V1294C-26.233 1292.33 -16.7617 1287.59 -9.0125 1281.99C11.975 1270.48 258.982 1126.82 287.503 1102.3C316.025 1077.77 395.132 1010.2 446.255 971.159C497.378 932.118 615.769 868.551 710.482 830.511C805.195 792.471 895.065 791.47 936.501 782.46C977.938 773.451 1137.23 770.948 1189.97 770.447C1242.7 769.947 1422.98 791.97 1468.18 798.477C1513.39 804.984 1782.46 863.045 1827.12 876.059C1862.86 886.47 1980.85 924.443 2035.39 942.129C2014.04 917.603 1953.91 861.243 1884.17 832.012C1796.99 795.474 1546.22 752.929 1449.35 727.902C1371.86 707.881 1228.71 685.524 1166.83 676.848C978.979 644.585 870.513 657.114 792.622 666.111L790.665 666.337C711.086 675.526 539.353 708.382 496.302 720.394L495.318 720.669C451.229 732.97 317.556 770.266 235.304 812.492Z" fill="#326AE3"/>
</g>
<defs>
<clipPath id="clip0_807_119">
<rect width="1939" height="1419" fill="white"/>
</clipPath>
</defs>
</svg>
