<svg width="1920" height="1750" viewBox="0 0 1920 1750" fill="none" xmlns="http://www.w3.org/2000/svg">
    <g clip-path="url(#clip0_776_5)">
        <path
            d="M1524.35 1172.56C1480.85 1123.19 1392.62 990.349 1373.69 863.193C1354.75 736.037 1363.08 653.306 1369.26 625.923C1373.69 582.664 1389.4 519.304 1433.31 414.87C1484.47 313.932 1542.42 255.816 1549.33 247.077C1560.52 232.938 1616.55 175.276 1667.77 141.769C1771.3 74.0402 1846.23 33.4028 1894.17 14.6134C1910.06 8.38656 1918.02 4.36025 1921.57 2.14205V1.0676C1923.86 -0.568709 1925.64 -0.409713 1921.57 2.14205V1079.93V1426C1828.37 1381.87 1648.33 1313.26 1524.35 1172.56Z"
            fill="#FFDC26" />
        <path
            d="M1639.65 995.333C1737.98 1066.24 1865.86 1078.67 1921.18 1071.37L1921.96 1071.28L1921.98 224.995C1925.44 224.199 1926.93 223.801 1905.18 228.578C1877.99 234.55 1771.12 254.541 1656.05 343.233C1581.67 400.561 1521.29 452.713 1489.69 537.509C1463.7 607.288 1462.1 654.155 1462.1 695.16C1462.1 772.063 1489.69 835.692 1514.49 869.531C1553.04 922.154 1577.27 950.347 1639.65 995.333Z"
            fill="#FFE12A" />
        <path
            d="M1713.71 906.937C1784.95 958.365 1877.59 967.38 1917.66 962.087L1918.23 962.024L1918.24 348.218C1920.75 347.64 1921.84 347.352 1906.08 350.817C1886.38 355.148 1808.96 369.647 1725.59 433.975C1671.71 475.554 1627.96 513.379 1605.07 574.882C1586.24 625.492 1585.08 659.483 1585.08 689.224C1585.09 745.001 1605.07 791.15 1623.03 815.694C1650.97 853.861 1668.52 874.309 1713.71 906.937Z"
            fill="#FFE33A" />
    </g>
    <defs>
        <clipPath id="clip0_776_5">
            <rect width="1920" height="1750" fill="white" />
        </clipPath>
    </defs>
</svg>