<svg width="687" height="737" viewBox="0 0 687 737" fill="none" xmlns="http://www.w3.org/2000/svg">
    <path
        d="M0 0C226.7 0 453.4 0 687 0C681.4 5.6 681.4 5.6 678.6 7.4C678 7.86667 677.4 8.3 676.8 8.7C676.133 9.1 675.467 9.53333 674.8 10C674.133 10.4667 673.433 10.9333 672.7 11.4C671.233 12.3333 669.767 13.3 668.3 14.3C666.167 15.7 664 17.1333 661.8 18.6C652.7 24.7 643.4 30.5 634 36C633.133 36.5333 632.233 37.0667 631.3 37.6C630.5 38.0667 629.7 38.5333 628.9 39C602.6 54.4 578 72.3 555.4 92.8C553.733 94.3333 552.067 95.8333 550.4 97.3C545.2 101.9 540.4 106.6 536 112C535 113.133 534.033 114.3 533.1 115.5C514.2 138 500.3 163.2 492.6 191.7C492.4 192.567 492.167 193.433 491.9 194.3C488.2 208.9 487.7 223.6 487.7 238.6C487.7 241.333 487.7 244.067 487.7 246.8C487.7 264.2 489.3 281.2 492.8 298.3C492.867 298.9 492.967 299.533 493.1 300.2C497.2 320.6 502.5 340.3 509 360C510 363 510.933 366.033 511.8 369.1C514.5 377.7 517.4 386.2 520.4 394.7C520.9 396.1 520.9 396.1 521.3 397.4C530.2 422.9 539.9 448.1 549.6 473.3C551.933 479.367 554.233 485.433 556.5 491.5C556.967 492.7 557.433 493.9 557.9 495.1C559.233 498.633 560.567 502.133 561.9 505.6C562.6 507.3 562.6 507.3 563.3 509.1C576.6 544 589.7 579 602.1 614.4C602.967 616.933 603.833 619.467 604.7 622C616.7 656.2 627.7 690.8 637.3 725.8C637.567 726.8 637.833 727.8 638.1 728.8C638.3 729.733 638.533 730.667 638.8 731.6C639.067 732.4 639.3 733.233 639.5 734.1C640 736 640 736 640 737C428.8 737 217.6 737 0 737C0 493.8 0 250.6 0 0ZM141.4 261.7C140.2 262.833 139 263.933 137.8 265C113.5 287.8 98.4 324.5 96.8 357.3C95.4 403.6 109.5 441.8 141 476C166.1 501.9 202.9 517.5 238.7 518.2C254.2 518.5 269.1 518.6 284 514C284.867 513.733 285.733 513.5 286.6 513.3C325.7 501.7 358.2 476.7 378.1 440.9C383.1 431.6 386.9 422.1 390 412C390.2 411.333 390.4 410.667 390.6 410C402.1 371.6 396.5 331 377.8 295.9C371.1 283.6 362.5 273.1 353 263C352.4 262.333 351.8 261.667 351.2 261C331.2 239.7 302.3 226.7 274 221C272.4 220.7 272.4 220.7 270.7 220.3C223 212.3 175.7 228.4 141.4 261.7Z"
        fill="#FC5E45" />
    <path
        d="M431.5 141C460.5 58 510.001 0 510.001 0H687L674.5 11.5L655 24.5L621 43C621 43 588.545 63.6798 569 80.5C557.695 90.2285 539.5 107.5 539.5 107.5C539.5 107.5 528.906 119 515 141C504.255 158 504.059 160.103 496.5 179C491.5 191.5 493 195.5 490 212.5C487 229.5 490 273.5 493 295C495.4 312.2 509.667 364 517.5 388C529.333 419 554.6 484.7 557 491.5C560 500 585 566 591.5 583.5C598 601 616 655 623 675C628.6 691 639 722 641.5 737H563L490.5 530.5C441 410 402.5 224 431.5 141Z"
        fill="#D9D9D9" fill-opacity="0.08" />
    <path
        d="M318 72.5001C359 11 506.5 -2.66664 578.5 0.500025H687.001L674 11L647 27.5L629 38L606 53.5C585.667 69.5 547.499 99.9999 540.5 108C537.651 111.256 519.499 128 508.5 154C493 178 489 198.4 489 228C489 257.6 493.167 301.5 496.501 319L520.501 396C535.834 438.5 568.1 522 572.5 530C578 540 595.001 600 602.501 616C608.501 628.8 629.667 701.667 639.501 736.5H356.001C332.001 688.167 282.6 580.6 265 547C243 505 256.5 516.929 261.5 515.5C275.5 511.5 318.5 512.5 348 477.5C366.5 458.5 379.5 445.625 390 411.5C400.5 377.375 393.98 346.73 390 331C379.5 289.5 367.427 277.268 347 257.5C331.5 242.5 319.5 236 305 230.5C279.021 220.646 272.5 223.5 263 222C260.5 221 256.171 239 263 204C269.829 169 277 134 318 72.5001Z"
        fill="#D9D9D9" fill-opacity="0.08" />
</svg>