<svg width="1914" height="1080" viewBox="0 0 1914 1080" fill="none" xmlns="http://www.w3.org/2000/svg">
    <path d="M427 948.901L429.129 957.033L469.579 947.739L466.74 939.608L427 948.901Z" fill="#FD6845" />
    <path d="M506.48 927.41L510.738 936.123L551.188 921.601L546.22 912.308L506.48 927.41Z" fill="#FD5F42" />
    <path d="M584.696 897.955L589.848 906.338L628.634 889.04L622.714 880.128L584.696 897.955Z" fill="#FD5F42" />
    <path d="M660.684 861.468L667.285 869.14L702.545 847.367L695.09 839.263L660.684 861.468Z" fill="#FD5F42" />
    <path d="M727.214 813.743L735.591 820.149L764.668 792.935L755.346 786.25L727.214 813.743Z" fill="#FD5F42" />
    <path d="M780.9 754.549L791.001 758.987L810.603 726.589L799.502 722.079L780.9 754.549Z" fill="#FD5F42" />
    <path d="M797.712 362.434L806.301 358.102L782.393 330.008L774.038 334.886L797.712 362.434Z" fill="#FD6845" />
    <path d="M747.05 308.3L755.602 302.136L725.724 275.771L716.741 282.675L747.05 308.3Z" fill="#FD5F42" />
    <path d="M687.705 257.773L695.586 251.028L663.083 226.866L654.85 234.377L687.705 257.773Z" fill="#FD5F42" />
    <path d="M621.059 211.294L627.653 203.669L591.197 183.703L584.391 192.13L621.059 211.294Z" fill="#FD5F42" />
    <path d="M544.684 175.822L549.247 167.246L508.609 153.846L504.037 163.242L544.684 175.822Z" fill="#FD5F42" />
    <path d="M459.433 154.04L461.182 144.788L417.737 140.405L416.234 150.452L459.433 154.04Z" fill="#FD5F42" />
</svg>